<?xml version="1.0" encoding="utf-8"?>
<!-- Generator: Adobe Illustrator 24.3.0, SVG Export Plug-In . SVG Version: 6.00 Build 0)  -->
<svg version="1.1" id="Layer_1" xmlns="http://www.w3.org/2000/svg" xmlns:xlink="http://www.w3.org/1999/xlink" x="0px" y="0px"
	 viewBox="0 0 164.76 48.34" style="enable-background:new 0 0 164.76 48.34;" xml:space="preserve">
<style type="text/css">
	.st0{fill:#262626;}
	.st1{fill:#1FAF4B;}
</style>
<g>
	<g>
		<path class="st0" d="M5.13,21.41c-0.28,0.16-0.67,0.24-1.15,0.24c-0.64,0-1.13-0.15-1.47-0.46c-0.34-0.31-0.52-0.77-0.52-1.38
			v-2.46L3.87,16v1.27H4.8v1.37H3.87v1.15c0,0.14,0.04,0.25,0.11,0.32c0.07,0.08,0.17,0.12,0.28,0.12c0.16,0,0.3-0.04,0.42-0.12
			L5.13,21.41z"/>
		<path class="st0" d="M10.04,16.94v1.66c-0.15-0.02-0.29-0.03-0.42-0.03c-0.64,0-0.96,0.33-0.96,0.98v2.02H6.79v-4.54h1.79v0.49
			C8.91,17.13,9.4,16.94,10.04,16.94z"/>
		<path class="st0" d="M16.7,17.02v4.54h-1.79v-0.37c-0.27,0.3-0.69,0.46-1.25,0.46c-0.4,0-0.77-0.1-1.1-0.29
			c-0.34-0.19-0.6-0.47-0.8-0.83c-0.2-0.36-0.29-0.78-0.29-1.25c0-0.47,0.1-0.88,0.29-1.24c0.2-0.36,0.46-0.63,0.8-0.82
			c0.33-0.19,0.7-0.29,1.1-0.29c0.5,0,0.89,0.13,1.15,0.39v-0.31H16.7z M14.65,19.95c0.14-0.16,0.21-0.38,0.21-0.66
			c0-0.28-0.07-0.5-0.21-0.66c-0.14-0.16-0.32-0.23-0.53-0.23c-0.22,0-0.39,0.08-0.53,0.23c-0.14,0.16-0.21,0.37-0.21,0.66
			c0,0.28,0.07,0.5,0.21,0.66c0.14,0.16,0.32,0.24,0.53,0.24C14.33,20.19,14.51,20.11,14.65,19.95z"/>
		<path class="st0" d="M23.73,15.4v6.16h-1.79v-0.37c-0.27,0.3-0.69,0.46-1.25,0.46c-0.4,0-0.77-0.1-1.1-0.29
			c-0.34-0.19-0.6-0.47-0.8-0.83c-0.2-0.36-0.29-0.78-0.29-1.25c0-0.47,0.1-0.88,0.29-1.24c0.2-0.36,0.46-0.63,0.8-0.82
			c0.34-0.19,0.7-0.29,1.1-0.29c0.5,0,0.89,0.13,1.15,0.39V15.4H23.73z M21.68,19.95c0.14-0.16,0.21-0.38,0.21-0.66
			c0-0.28-0.07-0.5-0.21-0.66c-0.14-0.16-0.32-0.23-0.53-0.23c-0.22,0-0.39,0.08-0.53,0.23c-0.14,0.16-0.21,0.37-0.21,0.66
			c0,0.28,0.07,0.5,0.21,0.66c0.14,0.16,0.32,0.24,0.53,0.24C21.37,20.19,21.54,20.11,21.68,19.95z"/>
		<path class="st0" d="M28.81,20.19c0.14-0.05,0.28-0.14,0.44-0.26l0.98,0.99c-0.45,0.49-1.12,0.73-1.99,0.73
			c-0.55,0-1.03-0.1-1.45-0.3c-0.42-0.2-0.74-0.48-0.96-0.84c-0.23-0.36-0.34-0.76-0.34-1.21c0-0.45,0.11-0.86,0.34-1.22
			c0.23-0.36,0.54-0.64,0.93-0.84c0.4-0.2,0.84-0.3,1.33-0.3c0.45,0,0.86,0.09,1.24,0.27c0.38,0.18,0.68,0.45,0.9,0.8
			c0.22,0.35,0.33,0.77,0.33,1.26l-3.11,0.6c0.14,0.27,0.42,0.4,0.84,0.4C28.51,20.26,28.68,20.24,28.81,20.19z M27.59,18.41
			c-0.14,0.13-0.22,0.32-0.25,0.56l1.45-0.28c-0.05-0.14-0.13-0.26-0.25-0.34c-0.12-0.09-0.26-0.13-0.43-0.13
			C27.9,18.22,27.73,18.28,27.59,18.41z"/>
	</g>
	<path class="st0" d="M70.81,16.25v7.97c0,1.92-0.55,3.39-1.65,4.41c-1.1,1.02-2.65,1.53-4.65,1.53c-0.9,0-1.7-0.12-2.43-0.37
		c-0.72-0.25-1.33-0.6-1.82-1.05c-0.49,0.45-1.1,0.81-1.82,1.05c-0.72,0.25-1.54,0.37-2.44,0.37c-1.99,0-3.53-0.51-4.64-1.54
		c-1.1-1.03-1.66-2.49-1.66-4.4v-7.97h3.86v7.85c0,0.97,0.2,1.69,0.59,2.16c0.4,0.47,0.99,0.7,1.78,0.7c0.79,0,1.39-0.23,1.78-0.7
		c0.4-0.47,0.59-1.19,0.59-2.16v-7.85h3.86v7.85c0,0.97,0.2,1.69,0.6,2.16c0.4,0.47,1.01,0.7,1.81,0.7c0.79,0,1.38-0.23,1.77-0.7
		c0.39-0.47,0.58-1.19,0.58-2.16v-7.85H70.81z"/>
	<path class="st0" d="M117.2,26.26h-2.1v3.62h-3.86V16.25h6.23c1.23,0,2.31,0.2,3.21,0.61c0.91,0.41,1.61,0.99,2.1,1.75
		c0.49,0.76,0.74,1.65,0.74,2.68c0,0.99-0.23,1.85-0.69,2.58c-0.46,0.73-1.12,1.31-1.98,1.72l2.94,4.29h-4.13L117.2,26.26z
		 M119.03,19.82c-0.4-0.35-1-0.53-1.79-0.53h-2.14v3.99h2.14c0.79,0,1.39-0.17,1.79-0.52c0.4-0.34,0.6-0.83,0.6-1.47
		C119.63,20.66,119.43,20.17,119.03,19.82z"/>
	<path class="st0" d="M131.3,16.25h3.86v10.58h6.51v3.06H131.3V16.25z"/>
	<path class="st0" d="M148.83,16.25h6.45c1.49,0,2.82,0.28,3.97,0.84c1.16,0.56,2.05,1.35,2.69,2.38c0.64,1.03,0.95,2.23,0.95,3.6
		c0,1.38-0.32,2.58-0.95,3.6c-0.64,1.03-1.53,1.82-2.69,2.38c-1.16,0.56-2.48,0.84-3.97,0.84h-6.45V16.25z M155.13,26.81
		c1.17,0,2.11-0.33,2.82-0.99c0.71-0.66,1.06-1.58,1.06-2.75c0-1.17-0.35-2.08-1.06-2.75c-0.71-0.66-1.65-0.99-2.82-0.99h-2.44v7.48
		H155.13z"/>
	<g>
		<path class="st0" d="M11.01,30.16c-0.28,0.16-0.67,0.24-1.15,0.24c-0.64,0-1.13-0.15-1.47-0.46c-0.34-0.31-0.52-0.77-0.52-1.38
			v-2.69l1.88-1.12v1.27h0.93v1.37H9.75v1.15c0,0.14,0.04,0.25,0.11,0.32c0.07,0.08,0.17,0.12,0.28,0.12c0.16,0,0.3-0.04,0.42-0.12
			L11.01,30.16z"/>
		<path class="st0" d="M17.17,26.2c0.34,0.34,0.51,0.85,0.51,1.53v2.59H15.8v-2.27c0-0.52-0.19-0.78-0.56-0.78
			c-0.21,0-0.38,0.07-0.51,0.22c-0.13,0.15-0.2,0.38-0.2,0.69v2.14h-1.88v-6.16h1.88v1.99c0.35-0.3,0.78-0.45,1.28-0.45
			C16.38,25.69,16.83,25.86,17.17,26.2z"/>
		<path class="st0" d="M22.83,28.94c0.14-0.05,0.28-0.14,0.44-0.26l0.98,0.99c-0.45,0.49-1.12,0.73-1.99,0.73
			c-0.55,0-1.03-0.1-1.45-0.3c-0.42-0.2-0.74-0.48-0.96-0.84c-0.23-0.36-0.34-0.76-0.34-1.21c0-0.45,0.11-0.86,0.34-1.22
			c0.23-0.36,0.54-0.64,0.93-0.83c0.4-0.2,0.84-0.3,1.33-0.3c0.45,0,0.86,0.09,1.24,0.27c0.38,0.18,0.68,0.45,0.9,0.8
			c0.22,0.35,0.33,0.77,0.33,1.26l-3.11,0.6c0.14,0.27,0.42,0.4,0.84,0.4C22.52,29.01,22.69,28.99,22.83,28.94z M21.61,27.16
			c-0.14,0.13-0.22,0.32-0.25,0.57l1.45-0.28c-0.05-0.14-0.13-0.26-0.25-0.34c-0.12-0.09-0.26-0.13-0.43-0.13
			C21.92,26.97,21.74,27.03,21.61,27.16z"/>
	</g>
	<rect x="38.52" y="16.38" class="st0" width="2.36" height="13.52"/>
	<g>
		<path class="st1" d="M92.19,29.21l-4.41-4.4l-8.57,6.3c2.29,4.14,6.7,6.95,11.77,6.95c7.42,0,13.44-6.02,13.44-13.44
			c0-1.75-0.34-3.41-0.94-4.95L92.19,29.21z"/>
		<path class="st1" d="M88.14,17.92l4.27,4.2l9.04-7.67c-2.46-3.06-6.24-5.02-10.47-5.02c-7.42,0-13.44,6.02-13.44,13.44
			c0,0.89,0.09,1.76,0.25,2.6L88.14,17.92z"/>
	</g>
</g>
</svg>
