<?xml version="1.0" encoding="utf-8"?>
<!-- Generator: Adobe Illustrator 24.3.0, SVG Export Plug-In . SVG Version: 6.00 Build 0)  -->
<svg version="1.1" id="Layer_1" xmlns="http://www.w3.org/2000/svg" xmlns:xlink="http://www.w3.org/1999/xlink" x="0px" y="0px"
	 viewBox="0 0 1118.02 207.98" style="enable-background:new 0 0 1118.02 207.98;" xml:space="preserve">
<style type="text/css">
	.st0{fill:#FFFFFF;}
	.st1{fill:#1FAF4B;stroke:#000000;stroke-miterlimit:10;}
</style>
<g>
	<g>
		<path class="st0" d="M34.18,88.88c-1.92,1.09-4.53,1.63-7.83,1.63c-4.32,0-7.64-1.04-9.97-3.13c-2.33-2.08-3.49-5.21-3.49-9.38
			v-16.7l12.73-9.1v8.62h6.31v9.29h-6.31v7.77c0,0.94,0.24,1.67,0.73,2.2c0.49,0.53,1.13,0.79,1.92,0.79c1.09,0,2.05-0.28,2.87-0.84
			L34.18,88.88z"/>
		<path class="st0" d="M67.47,58.57v11.27c-1.01-0.15-1.95-0.23-2.82-0.23c-4.36,0-6.53,2.22-6.53,6.65v13.69H45.39V59.14H57.5v3.32
			C59.76,59.87,63.08,58.57,67.47,58.57z"/>
		<path class="st0" d="M112.59,59.14v30.81h-12.11v-2.53c-1.84,2.07-4.66,3.1-8.45,3.1c-2.7,0-5.19-0.65-7.46-1.94
			c-2.27-1.29-4.08-3.16-5.41-5.6c-1.33-2.44-2-5.26-2-8.45c0-3.19,0.67-6,2-8.42c1.33-2.42,3.13-4.28,5.41-5.58
			c2.27-1.29,4.76-1.94,7.46-1.94c3.42,0,6.03,0.88,7.83,2.65v-2.08H112.59z M98.68,78.99c0.94-1.07,1.41-2.56,1.41-4.48
			c0-1.92-0.47-3.4-1.41-4.45c-0.94-1.05-2.14-1.58-3.6-1.58s-2.67,0.53-3.6,1.58c-0.94,1.05-1.41,2.53-1.41,4.45
			c0,1.92,0.47,3.41,1.41,4.48c0.94,1.07,2.14,1.61,3.6,1.61S97.74,80.06,98.68,78.99z"/>
		<path class="st0" d="M160.3,48.15v41.8h-12.11v-2.53c-1.84,2.07-4.66,3.1-8.45,3.1c-2.7,0-5.19-0.65-7.46-1.94
			c-2.27-1.29-4.08-3.16-5.41-5.6c-1.33-2.44-2-5.26-2-8.45c0-3.19,0.67-6,2-8.42c1.33-2.42,3.13-4.28,5.41-5.58
			c2.27-1.29,4.76-1.94,7.46-1.94c3.42,0,6.03,0.88,7.83,2.65V48.15H160.3z M146.39,78.99c0.94-1.07,1.41-2.56,1.41-4.48
			c0-1.92-0.47-3.4-1.41-4.45c-0.94-1.05-2.14-1.58-3.6-1.58c-1.46,0-2.67,0.53-3.6,1.58c-0.94,1.05-1.41,2.53-1.41,4.45
			c0,1.92,0.47,3.41,1.41,4.48c0.94,1.07,2.14,1.61,3.6,1.61C144.25,80.6,145.45,80.06,146.39,78.99z"/>
		<path class="st0" d="M194.75,80.6c0.92-0.34,1.92-0.92,3.01-1.75l6.65,6.7c-3.08,3.3-7.57,4.96-13.46,4.96
			c-3.72,0-6.98-0.69-9.8-2.06c-2.82-1.37-4.99-3.27-6.53-5.72c-1.54-2.44-2.31-5.18-2.31-8.22c0-3.08,0.77-5.83,2.31-8.25
			c1.54-2.42,3.65-4.31,6.34-5.66c2.68-1.35,5.7-2.03,9.04-2.03c3.04,0,5.84,0.61,8.39,1.83c2.55,1.22,4.58,3.02,6.08,5.41
			c1.5,2.39,2.25,5.23,2.25,8.53l-21.07,4.06c0.94,1.8,2.83,2.7,5.69,2.7C192.69,81.1,193.83,80.94,194.75,80.6z M186.47,68.54
			c-0.92,0.86-1.47,2.14-1.66,3.83l9.86-1.92c-0.34-0.98-0.91-1.76-1.72-2.34c-0.81-0.58-1.77-0.87-2.9-0.87
			C188.58,67.25,187.39,67.68,186.47,68.54z"/>
	</g>
	<path class="st0" d="M479.54,53.91v54.03c0,13.03-3.72,23.01-11.16,29.92c-7.44,6.91-17.95,10.37-31.51,10.37
		c-6.08,0-11.56-0.84-16.45-2.51c-4.89-1.67-9.01-4.05-12.35-7.13c-3.35,3.08-7.46,5.46-12.35,7.13
		c-4.89,1.67-10.42,2.51-16.58,2.51c-13.47,0-23.96-3.48-31.44-10.44c-7.49-6.96-11.23-16.91-11.23-29.85V53.91h26.16v53.24
		c0,6.61,1.34,11.49,4.03,14.66c2.69,3.17,6.71,4.76,12.09,4.76c5.37,0,9.4-1.59,12.09-4.76c2.69-3.17,4.03-8.06,4.03-14.66V53.91
		h26.16v53.24c0,6.61,1.36,11.49,4.1,14.66c2.73,3.17,6.82,4.76,12.29,4.76c5.37,0,9.38-1.59,12.02-4.76
		c2.64-3.17,3.96-8.06,3.96-14.66V53.91H479.54z"/>
	<path class="st0" d="M794.06,121.81H779.8v24.57h-26.16V53.91h42.27c8.37,0,15.63,1.39,21.8,4.16c6.16,2.77,10.92,6.74,14.27,11.89
		c3.35,5.15,5.02,11.21,5.02,18.16c0,6.69-1.56,12.53-4.69,17.5c-3.13,4.98-7.6,8.87-13.41,11.69l19.95,29.06h-28.01L794.06,121.81z
		 M806.48,78.09c-2.73-2.38-6.78-3.57-12.15-3.57H779.8v27.08h14.53c5.37,0,9.42-1.17,12.15-3.5c2.73-2.33,4.1-5.66,4.1-9.97
		C810.57,83.81,809.21,80.46,806.48,78.09z"/>
	<path class="st0" d="M889.7,53.91h26.16v71.73h44.12v20.74H889.7V53.91z"/>
	<path class="st0" d="M1008.59,53.91h43.73c10.13,0,19.11,1.89,26.95,5.68c7.84,3.79,13.92,9.16,18.23,16.12
		c4.31,6.96,6.47,15.1,6.47,24.44c0,9.34-2.16,17.48-6.47,24.44c-4.32,6.96-10.39,12.33-18.23,16.12
		c-7.84,3.79-16.82,5.68-26.95,5.68h-43.73V53.91z M1051.26,125.51c7.93,0,14.29-2.25,19.09-6.74c4.8-4.49,7.2-10.7,7.2-18.63
		c0-7.93-2.4-14.13-7.2-18.63c-4.8-4.49-11.16-6.74-19.09-6.74h-16.51v50.73H1051.26z"/>
	<g>
		<path class="st0" d="M74.03,148.23c-1.92,1.09-4.53,1.63-7.83,1.63c-4.32,0-7.64-1.04-9.97-3.13c-2.33-2.08-3.49-5.21-3.49-9.38
			v-18.22l12.73-7.58v8.62h6.31v9.29h-6.31v7.77c0,0.94,0.24,1.67,0.73,2.2c0.49,0.53,1.13,0.79,1.92,0.79
			c1.09,0,2.05-0.28,2.87-0.85L74.03,148.23z"/>
		<path class="st0" d="M115.79,121.36c2.31,2.29,3.46,5.75,3.46,10.36v17.57h-12.73v-15.38c0-3.53-1.26-5.29-3.77-5.29
			c-1.43,0-2.58,0.5-3.46,1.49c-0.88,1-1.32,2.56-1.32,4.7v14.48H85.24v-41.8h12.73v13.46c2.37-2.03,5.26-3.04,8.67-3.04
			C110.43,117.93,113.48,119.07,115.79,121.36z"/>
		<path class="st0" d="M154.15,139.95c0.92-0.34,1.92-0.92,3.01-1.75l6.65,6.7c-3.08,3.31-7.57,4.96-13.46,4.96
			c-3.72,0-6.98-0.68-9.8-2.06c-2.82-1.37-4.99-3.28-6.53-5.72c-1.54-2.44-2.31-5.18-2.31-8.22c0-3.08,0.77-5.83,2.31-8.25
			c1.54-2.42,3.65-4.31,6.34-5.66c2.68-1.35,5.7-2.03,9.04-2.03c3.04,0,5.84,0.61,8.39,1.83c2.55,1.22,4.58,3.02,6.08,5.41
			c1.5,2.38,2.25,5.23,2.25,8.53l-21.07,4.06c0.94,1.8,2.83,2.7,5.69,2.7C152.1,140.46,153.23,140.29,154.15,139.95z M145.87,127.9
			c-0.92,0.86-1.47,2.14-1.66,3.83l9.86-1.92c-0.34-0.98-0.91-1.76-1.72-2.34c-0.81-0.58-1.77-0.87-2.9-0.87
			C147.99,126.6,146.79,127.03,145.87,127.9z"/>
	</g>
	<rect x="260.54" y="54.78" class="st0" width="16.02" height="91.67"/>
	<g>
		<path class="st1" d="M597,67.36l28.93,28.45l61.29-52.01c-16.7-20.73-42.28-34.01-70.98-34.01c-50.32,0-91.12,40.79-91.12,91.12
			c0,6.04,0.6,11.94,1.72,17.66L597,67.36z"/>
		<path class="st1" d="M624.48,131.96l-29.89-29.82l-58.15,42.75c15.52,28.09,45.43,47.13,79.8,47.13
			c50.32,0,91.12-40.79,91.12-91.12c0-11.85-2.29-23.15-6.4-33.53L624.48,131.96z"/>
	</g>
</g>
</svg>
